# xmcd
#
# Track frame offsets: 
#        150
#        8712
#        16280
#        23422
#        46657
#        58055
#        82495
#        105247
#        111575
#        152425
#        177462
#        192872
#        204400
#
# Disc length: 3037 seconds
#
# Revision: 3
# Processed by: cddbd v1.4PL0 Copyright (c) Steve Scherf et al.
# Submitted via: ExactAudioCopy v0.95a3
#
DISCID=9c0bdb0d
DTITLE=Jethro Tull - Nightcap - Chateau D'isaster
DYEAR=1993
DGENRE=
TTITLE0=First Post
TTITLE1=Animelée
TTITLE2=Tiger Toon
TTITLE3=Look at the Animals
TTITLE4=Law of the Bungle
TTITLE5=Law of the Bungle Part II
TTITLE6=Left Right
TTITLE7=Solitaire
TTITLE8=Critique Oblique
TTITLE9=Post Last
TTITLE10=Scenario
TTITLE11=Audition
TTITLE12=No Rehearsal
EXTD=Chateau D'Isaster Tapes, 1973\n(P) 1993/1988 Chrysalis Records Lt
EXTD=d\n\nMusicians\nIan Anderson\nMartin Barre\nJohn Evan\nJefrey Ham
EXTD=mond-Hammond\nBarriemore Barlow\nMathew Pegg
EXTT0=
EXTT1=
EXTT2=
EXTT3=
EXTT4=
EXTT5=
EXTT6=
EXTT7=
EXTT8=
EXTT9=
EXTT10=
EXTT11=
EXTT12=
PLAYORDER=
